<svg width="130" height="130" viewBox="0 0 130 130" fill="none" xmlns="http://www.w3.org/2000/svg">
<path d="M61.3987 27.9148C57.85 29.3554 53.6338 31.3054 53.0716 31.7621C52.0176 32.6054 51.227 33.923 50.5068 36.0311C50.1378 37.1378 49.3297 39.4216 48.6973 41.1081C46.9932 45.7108 47.0459 46.4662 49.2946 49.0135C51.1568 51.1216 57.0068 58.7635 60.3622 63.4189C62.0662 65.7905 63.6122 67.8811 63.7878 68.0743C64.1743 68.4608 64.1392 68.4608 64.7716 67.5122C64.9824 67.2135 65 67.2135 65.2635 67.5473C66.1243 68.654 65.9135 68.7946 67.846 65.9311C70.1824 62.4703 72.9405 58.8162 77.2095 53.5284C81.8824 47.7311 82.1811 47.3446 82.3919 46.5892C82.7784 45.1662 82.5676 44.1297 81.2324 40.8446C80.723 39.5797 80.0905 37.8054 79.8446 36.8919C79.1946 34.6432 78.7027 33.5716 77.8946 32.6757C76.9635 31.6392 76.2432 31.2351 73.5378 30.1284C72.2554 29.6013 70.5514 28.8635 69.7608 28.477C67.7405 27.4932 66.6162 27.2648 65.7027 27.6338C65.0878 27.8797 64.9297 27.8797 64.5081 27.6513C63.7878 27.2824 62.7514 27.3703 61.3987 27.9148Z" fill="white"/>
<path d="M43.5676 31.604C41.8108 32.1662 40.7568 33.4837 40.7568 35.0473V35.6797L41.4243 35.1702C43.1811 33.8 45.3243 34.0108 45.3243 35.5567C45.3243 35.8729 45.1486 36.4878 44.9378 36.9094C44.5514 37.6473 42.6365 40.3175 42.3554 40.4932C42.2676 40.5283 42.7068 41.0905 43.3041 41.7405L44.3757 42.9L45.5 41.7405C47.6608 39.4743 48.5919 37.9459 48.8378 36.1892C49.2243 33.4486 47.8013 31.6391 45.1838 31.5162C44.5338 31.481 43.8135 31.5162 43.5676 31.604Z" fill="white"/>
<path d="M83.5513 31.6919C81.8473 32.3243 81.1094 33.4662 81.127 35.381C81.1446 37.5594 81.9176 39.0175 84.3946 41.6C85.7649 43.0405 85.7824 43.0405 86.0459 42.654C86.1865 42.4256 86.6608 41.8986 87.0824 41.4594L87.8378 40.6513L86.6081 39.1756C84.6405 36.7865 84.1838 35.381 85.1324 34.6256C85.9581 33.9756 87.5919 34.1865 88.4351 35.0648C89.1554 35.8027 89.4189 35.8202 89.4189 35.1351C89.4189 33.9229 88.5054 32.5878 87.223 31.9378C86.3095 31.4635 84.4824 31.3405 83.5513 31.6919Z" fill="white"/>
<path d="M34.327 38.9824C33.4487 39.1932 31.9905 40.0716 31.3581 40.7919C30.2162 42.0392 29.8122 43.1108 29.7243 44.9905C29.6541 46.4311 29.7068 46.7648 30.0054 47.3797C30.2162 47.7662 30.4973 48.1351 30.6554 48.1878C30.8838 48.2756 30.9189 48.1175 30.9189 47.0986C30.9189 44.0419 32.7284 42.1446 35.6622 42.127C40.0014 42.0919 42.8122 46.9756 41.477 52.2108C40.8622 54.6175 39.9135 56.3919 37.1027 60.4324C36.2068 61.7324 35.1878 63.2608 34.8365 63.8405L34.1865 64.877L34.7662 65.3513C35.3811 65.8608 37.05 66.827 37.1554 66.7216C37.1905 66.704 38.2797 65.0878 39.5622 63.1554C43.7081 56.9716 45.1487 53.2121 45.1487 48.6446C45.1487 46.677 44.9203 45.5527 44.1649 43.9892C42.5487 40.5811 37.7878 38.1567 34.327 38.9824Z" fill="white"/>
<path d="M91.9311 39.0878C88.6284 40.0013 85.9581 42.7067 85.1149 45.9743C84.5351 48.1702 84.9392 52.2459 86.0108 55.0919C86.7838 57.1648 88.4176 60.1162 90.6486 63.5067L92.7919 66.7392L93.3892 66.4932C94.1446 66.177 95.5149 65.2108 95.6378 64.9121C95.673 64.7892 94.9703 63.577 94.0568 62.2419C92.2649 59.6419 90.4554 56.7257 89.6824 55.1621C87.504 50.823 87.75 46.7121 90.3676 43.9365C91.3865 42.8824 92.0892 42.4608 93.4068 42.1797C94.4257 41.9689 95.7257 42.1446 96.6392 42.6013C98.2378 43.427 99.3446 45.4473 99.2216 47.2919C99.1513 48.1351 99.1865 48.2581 99.3973 48.1C100.522 47.1689 100.627 44.5689 99.6257 42.4081C98.9405 40.9324 97.9568 39.8784 96.7095 39.3338C95.5851 38.8243 93.2662 38.7189 91.9311 39.0878Z" fill="white"/>
<path d="M37.2257 44.8148C33.2378 47.5729 30.1284 50.9459 28.6351 54.1432C26.8432 58.0081 27.0716 63.3135 29.1622 66.581C32.3595 71.4999 39.2108 73.5554 49.4527 72.6418C53.423 72.2905 55.1622 72.3608 56.6554 72.9229C59.2905 73.9067 60.4324 76.6824 60.4324 82.1635C60.4324 87.8378 59.3257 92.5283 57.3405 95.2162C56.0054 97.0432 54.2838 97.7986 52.7203 97.254L51.9297 96.9905L49.9446 97.9743C48.8554 98.5189 47.9595 99.0283 47.9595 99.081C47.9595 99.3797 49.1189 100.627 49.8743 101.154C52.1932 102.77 56.5149 102.085 59.1851 99.6783C61.5743 97.5351 63.2432 93.9864 64.0162 89.454C64.877 84.4472 64.8419 75.1013 63.9459 71.6054C63.173 68.5837 61.3986 66.704 57.3054 64.5608C55.1973 63.4716 53.95 61.627 54.5122 60.4324C54.8284 59.7824 55.6541 59.7472 56.3743 60.3621C56.6905 60.6081 56.9716 60.7837 57.0243 60.7486C57.1122 60.6608 53.5284 55.4081 52.2284 53.704C51.7892 53.1418 51.4027 52.7202 51.35 52.7553C51.3149 52.8081 51.35 53.1418 51.4554 53.5108C51.8595 55.0216 52.0176 56.7959 51.8243 57.7445C51.6486 58.5702 51.1041 59.554 50.8054 59.554C50.7351 59.554 50.7 59.0094 50.7351 58.3418C50.7878 57.1472 50.7878 57.1297 50.3135 57.0243C49.0311 56.6905 48.223 55.4783 48.0297 53.6162C47.9595 53.0189 47.8716 52.527 47.8365 52.527C47.8014 52.527 47.4149 52.7553 46.9932 53.054C45.8865 53.8094 44.8324 55.0918 44.2176 56.3743C43.5851 57.7094 43.3919 59.6594 43.7432 61.1702C44.0068 62.3121 45.1135 64.4905 45.9041 65.4216L46.4838 66.1067L46.9054 65.4567C47.7662 64.0513 49.9446 63.0851 51.0514 63.6121C52.3162 64.227 52.2284 65.7202 50.8405 67.0554C49.6284 68.2324 48.1878 68.6013 44.973 68.5837C39.7378 68.5662 35.8905 67.3891 33.8176 65.1581C32.1662 63.3662 31.6216 60.9418 32.2189 57.9553C32.8338 54.8986 34.4324 52.3864 38.3324 48.3635C39.4743 47.204 40.4054 46.1675 40.4054 46.0621C40.4054 45.781 38.9649 43.9189 38.7365 43.9189C38.6311 43.9189 37.9459 44.3229 37.2257 44.8148Z" fill="white"/>
<path d="M90.6662 44.5337C90.3676 44.8675 90.0162 45.377 89.8581 45.6581L89.5946 46.1675L91.7905 48.4689C95.1635 52 96.4986 53.95 97.4297 56.6554C97.8513 57.8675 97.9216 58.3243 97.9216 60.081C97.9216 62.3824 97.6581 63.2959 96.5513 64.8067C95.2338 66.5986 92.5108 67.8459 88.6811 68.4081C82.6378 69.304 78.4919 68.0216 78.2108 65.1756C78.123 64.1216 78.4216 63.6648 79.3351 63.4891C80.4946 63.2783 81.1095 63.5418 82.4622 64.8418L83.7446 66.054L84.377 65.1229C85.9757 62.7162 86.5203 60.9945 86.3973 58.8689C86.2743 56.6378 85.2378 54.7932 83.2176 53.1945C82.7432 52.8256 82.2865 52.527 82.1986 52.527C82.1108 52.527 82.0405 52.8256 82.0405 53.177C82.0405 54.1959 81.5838 55.6891 81.127 56.1635C80.9162 56.3918 80.3892 56.7432 79.95 56.9364L79.177 57.2702L79.2649 58.5C79.3527 59.7297 79.3527 59.7473 79.0013 59.431C78.1405 58.6581 77.9297 56.6378 78.4392 54.0027C78.5797 53.2473 78.6851 52.6148 78.65 52.5973C78.5973 52.527 74.8203 57.8324 73.8365 59.3608C72.9405 60.7486 72.8878 60.977 73.6257 60.3621C74.3284 59.7648 75.0838 59.7648 75.4703 60.3445C75.7338 60.731 75.7338 60.9067 75.5405 61.5391C75.2068 62.681 74.627 63.3135 72.677 64.5783C69.3216 66.7743 69.0581 66.9675 68.1622 67.8459C66.9324 69.0932 66.1419 70.7972 65.7554 72.9932C65.3338 75.5054 65.3338 84.5175 65.7554 87.6621C66.5284 93.3364 68.1095 97.1662 70.6041 99.4851C74.0297 102.647 79.1068 102.928 81.3554 100.1C81.7243 99.6256 82.0405 99.1689 82.0405 99.081C82.0405 99.0108 81.6189 98.7824 81.1095 98.5716C80.6 98.3608 79.7041 97.904 79.1419 97.5702L78.0878 96.9378L77.2446 97.2364C74.6973 98.1499 72.2027 95.831 70.7973 91.2635C70.1122 88.9972 69.7081 86.1513 69.6203 82.831C69.4446 76.6999 70.5338 73.9594 73.5554 72.9756C74.6446 72.6243 75.4527 72.6067 83.973 72.7472C89.5419 72.8351 92.6865 72.2905 96.0068 70.6391C99.4149 68.9351 101.295 66.7391 102.191 63.4189C102.612 61.8202 102.612 57.7973 102.191 56.2162C101.488 53.6162 100.03 51.2094 97.8338 49.031C96.4459 47.6608 91.7378 43.9189 91.3865 43.9189C91.2811 43.9189 90.9649 44.2 90.6662 44.5337Z" fill="white"/>
<path d="M30.7608 70.7797C29.8122 73.0108 29.6013 74.2054 29.6013 77.5608C29.6013 80.5648 29.6365 80.7932 30.0932 82.1283C31.0595 84.8689 32.6581 87.0297 34.7662 88.4351C37.3486 90.1567 39.4568 90.7013 43.2865 90.631L45.9392 90.5783L46.0622 91.7729C46.1149 92.4229 46.2203 93.0729 46.273 93.2135C46.4135 93.5824 47.3446 93.5121 48.6622 93.0554L49.8041 92.6513L49.7338 91.7729C49.5581 89.7527 49.4527 89.9283 51.1216 89.331C54.1959 88.2067 55.4608 87.3108 58.2014 84.2891L59.9054 82.4094V81.3554C59.9054 79.827 59.5892 77.7364 59.15 76.4189C58.6932 75.0837 58.6405 75.0837 56.8135 75.8918L55.6892 76.4013V77.5959C55.6892 79.95 54.8635 81.7945 53.1068 83.4459C52.1054 84.3946 50.3135 85.431 49.4527 85.5891C49.1541 85.6418 49.0662 85.4486 48.75 83.7446C48.5568 82.7081 48.3284 81.8473 48.223 81.8648C48.1351 81.8824 47.5905 82.3216 47.0108 82.8662C45.7986 84.0256 45.2365 85.1324 45.4122 86.0283L45.5176 86.6608L44.0068 86.5378C40.7216 86.2743 38.2446 85.2729 36.3297 83.4635C34.9068 82.1283 34.1865 80.7932 33.7824 78.7202C33.4486 77.0162 33.6068 75.3824 34.327 73.0283L34.7486 71.6581L34.3446 71.5C34.1338 71.4121 33.3081 71.0256 32.5351 70.6391L31.1297 69.9364L30.7608 70.7797Z" fill="white"/>
<path d="M97.377 70.5864C96.7797 70.9378 96.0594 71.3594 95.7784 71.5175L95.2689 71.8162L95.6905 73.0635C96.7094 76.1027 96.6392 78.7554 95.4621 81.1446C93.9865 84.131 90.9297 85.9932 86.7662 86.4324C84.5878 86.6432 84.5 86.6081 84.5 85.3959V84.3946L83.2176 83.1297C82.5149 82.4446 81.9 81.8648 81.8297 81.8648C81.654 81.8648 81.373 82.8662 81.1446 84.3594C81.0216 85.2202 80.8635 85.7297 80.723 85.7297C80.1784 85.7297 77.877 84.377 76.9284 83.4986C75.1716 81.8648 74.3108 79.9324 74.3108 77.6135V76.4013L73.2216 75.8919C71.377 75.0662 71.3068 75.0837 70.85 76.4364C70.4284 77.6837 70.0946 79.95 70.0946 81.5486C70.0946 82.3919 70.1649 82.5851 70.5338 82.8837C70.7622 83.077 71.5527 83.9378 72.273 84.7986C74.1878 87.1175 75.4527 87.9959 78.6676 89.2432L80.3716 89.9108L80.3189 91.2108L80.2486 92.5284L81.1621 92.9148C81.654 93.1256 82.4446 93.354 82.9013 93.4067L83.7446 93.4946L83.8676 92.4756C83.9378 91.8959 84.0257 91.2459 84.0784 91L84.1486 90.5608H87.1878C90.6662 90.5432 91.5973 90.3675 93.9865 89.1905C95.1459 88.6283 95.7959 88.154 96.9027 87.0473C98.4311 85.5189 99.2743 84.1135 99.9594 81.9527C100.451 80.3892 100.645 76.6824 100.311 74.5918C100.047 72.8527 99.0811 70.0243 98.7121 69.9716C98.5892 69.954 97.9743 70.2351 97.377 70.5864Z" fill="white"/>
<path d="M51.0338 73.0284C50.6824 73.0811 50.4189 73.2567 50.2257 73.5729C50.0851 73.8365 49.1716 74.6094 48.2054 75.277C45.6932 77.0513 42.2149 80.5824 40.5987 82.9892C39.65 84.4121 39.3865 84.9392 39.5622 85.0446C39.8608 85.2027 42.25 85.8527 43.0405 85.9756C43.6203 86.0635 43.6905 86.0283 44.3581 85.0621C45.4297 83.5338 49.2595 79.8094 51.1216 78.4743C52.7027 77.35 57.3932 74.8378 57.9027 74.8378C58.4824 74.8378 57.8149 74.0473 56.8135 73.5554C55.777 73.0284 53.0014 72.7824 51.0338 73.0284Z" fill="white"/>
<path d="M74.4865 73.1337C73.9595 73.2567 73.2743 73.4851 72.9933 73.6432C72.4487 73.9243 71.746 74.6094 71.8689 74.7324C71.9041 74.7675 72.6595 75.1013 73.5203 75.4702C75.5054 76.3135 76.8581 77.0689 78.9135 78.527C80.7405 79.8094 84.2541 83.1824 85.3608 84.7283C85.7649 85.2905 86.2919 85.8175 86.5378 85.9054C87.0824 86.1162 88.2946 85.8527 89.6473 85.2378L90.6662 84.7635L89.5243 83.0946C87.6797 80.3891 86.3095 78.9486 83.3581 76.5946C82.5851 75.9797 81.3378 74.9256 80.5649 74.2405L79.1946 73.0108L77.3149 72.9581C76.2257 72.9405 75.0487 73.0108 74.4865 73.1337Z" fill="white"/>
<path d="M40.2297 74.4689C39.4568 74.6446 38.2973 75.2243 37.9284 75.6459C37.0149 76.6824 36.7162 78.7027 37.3135 79.6162C37.7879 80.354 38.0514 80.3364 38.0689 79.5635C38.1216 78.6324 38.4554 78 39.1581 77.5256C40.2297 76.7878 42.0216 77.0864 43.0054 78.1405L43.4797 78.65L44.6743 77.5783L45.8689 76.4892L45.5 76.0148C44.6392 74.9256 41.8811 74.1175 40.2297 74.4689Z" fill="white"/>
<path d="M87.3459 74.4865C86.5027 74.6622 85.0095 75.4351 84.5703 75.9094C84.2014 76.3135 84.4122 76.7 85.6419 77.7365L86.6081 78.5797L86.9595 78.123C87.4689 77.4905 88.6986 77.0513 89.7 77.1743C91.0527 77.3149 92.0013 78.3162 92.0892 79.6513C92.1419 80.3013 92.1419 80.3013 92.4405 79.9149C93.6702 78.4216 92.9148 75.8919 90.9649 74.9432C89.9108 74.4338 88.4703 74.2581 87.3459 74.4865Z" fill="white"/>
<path d="M55.1095 90.5608C54.1784 90.8067 53.6338 91.0702 50.7703 92.6162C48.0122 94.1094 46.3608 94.4432 44.4811 93.8986C43.4973 93.6 42.4432 92.5635 42.25 91.7027C42.1446 91.2459 42.0919 91.2283 40.7041 91.1229C39.9135 91.0527 39 90.9297 38.6662 90.8243C38.3324 90.7364 38.0162 90.7013 37.9635 90.7364C37.7527 90.9648 38.2973 93.5297 38.7716 94.5486C39.4919 96.0243 40.3351 96.9729 41.5824 97.6229C43.9541 98.8878 47.0108 98.8 49.7338 97.4121C50.0676 97.2364 51.1919 96.5513 52.2284 95.8837C54.3365 94.531 55.496 93.9689 56.8487 93.6527C57.727 93.4419 57.7797 93.3892 58.2014 92.4405C58.8162 91.0175 58.9041 90.5256 58.5703 90.4027C58.096 90.227 55.9878 90.3148 55.1095 90.5608Z" fill="white"/>
<path d="M71.7284 90.4202C71.3771 90.5608 71.4649 91.527 71.9216 92.4932C72.2906 93.3189 72.3784 93.3892 73.2392 93.5824C74.4338 93.8635 75.8392 94.5838 77.9122 95.9892C80.9865 98.0973 82.6027 98.6594 85.1149 98.5013C89.05 98.2378 91.65 95.7081 92.0014 91.8081L92.1068 90.7716L91.5446 90.877C91.2459 90.9473 90.2797 91.0878 89.4189 91.1932C87.8554 91.3865 87.8554 91.404 87.6622 91.9838C87.3635 92.8797 86.2919 93.7405 85.1149 94.004C83.446 94.373 82.3392 94.0743 78.5622 92.2473C76.7527 91.3689 74.9257 90.5784 74.4865 90.4729C73.6608 90.2973 72.0973 90.2621 71.7284 90.4202Z" fill="white"/>
<path d="M65.6851 94.0216C65.3338 94.7946 65.2635 95.1987 65.2635 96.6919C65.2635 98.2378 65.3162 98.5892 65.7203 99.4324C66.5811 101.295 67.8108 102.261 69.6203 102.507C70.5162 102.647 70.727 102.436 70.0068 102.103C69.2689 101.769 67.9689 100.451 67.5473 99.6081C66.9851 98.4838 66.8622 97.6581 67.1081 96.6216C67.3013 95.8135 67.2838 95.6554 66.8446 94.5135C66.5811 93.8459 66.3176 93.2487 66.2473 93.1959C66.177 93.1608 65.9135 93.5297 65.6851 94.0216Z" fill="white"/>
<path d="M63.1554 94.5838C62.7162 95.7959 62.6987 95.9716 62.8919 96.7973C63.3487 98.677 62.3122 100.557 59.9932 102.155L59.2905 102.63L60.1689 102.559C61.9081 102.401 63.3311 101.312 64.2446 99.4675C64.6311 98.677 64.7365 98.1851 64.7892 96.8675C64.8595 95.4094 64.8243 95.1459 64.4203 94.2675C64.1743 93.7229 63.8933 93.2838 63.8054 93.2838C63.7 93.2838 63.4189 93.8635 63.1554 94.5838Z" fill="white"/>
</svg>
