<svg width="375" height="812" viewBox="0 0 375 812" fill="none" xmlns="http://www.w3.org/2000/svg">
<rect width="375" height="812" fill="black"/>
<rect width="376" height="823" transform="matrix(1 0 0 -1 0 823)" fill="url(#paint0_linear)"/>
<path d="M175.919 519.892C165 524.324 152.027 530.324 150.297 531.73C147.054 534.324 144.622 538.378 142.405 544.865C141.27 548.27 138.784 555.297 136.838 560.487C131.595 574.649 131.757 576.973 138.676 584.811C144.405 591.297 162.405 614.811 172.73 629.135C177.973 636.432 182.73 642.865 183.27 643.46C184.459 644.649 184.351 644.649 186.297 641.73C186.946 640.811 187 640.811 187.811 641.838C190.459 645.243 189.811 645.676 195.757 636.865C202.946 626.216 211.432 614.973 224.568 598.703C238.946 580.865 239.865 579.676 240.514 577.351C241.703 572.973 241.054 569.784 236.946 559.676C235.378 555.784 233.432 550.324 232.676 547.514C230.676 540.595 229.162 537.297 226.676 534.541C223.811 531.351 221.595 530.108 213.27 526.703C209.324 525.081 204.081 522.811 201.649 521.622C195.432 518.595 191.973 517.892 189.162 519.027C187.27 519.784 186.784 519.784 185.487 519.081C183.27 517.946 180.081 518.216 175.919 519.892Z" fill="black"/>
<path d="M121.054 531.243C115.649 532.973 112.405 537.027 112.405 541.838V543.784L114.459 542.216C119.865 538 126.459 538.649 126.459 543.405C126.459 544.378 125.919 546.27 125.27 547.568C124.081 549.838 118.189 558.054 117.324 558.595C117.054 558.703 118.405 560.432 120.243 562.432L123.541 566L127 562.432C133.649 555.459 136.513 550.757 137.27 545.351C138.459 536.919 134.081 531.351 126.027 530.973C124.027 530.865 121.811 530.973 121.054 531.243Z" fill="black"/>
<path d="M244.081 531.514C238.838 533.46 236.568 536.973 236.622 542.865C236.676 549.568 239.054 554.054 246.676 562C250.892 566.432 250.946 566.432 251.757 565.243C252.189 564.541 253.649 562.919 254.946 561.568L257.27 559.081L253.486 554.541C247.432 547.189 246.027 542.865 248.946 540.541C251.486 538.541 256.513 539.189 259.108 541.892C261.324 544.162 262.135 544.216 262.135 542.108C262.135 538.378 259.324 534.27 255.378 532.27C252.568 530.811 246.946 530.432 244.081 531.514Z" fill="black"/>
<path d="M92.6216 553.946C89.9189 554.595 85.4324 557.297 83.4865 559.514C79.973 563.351 78.7297 566.649 78.4595 572.432C78.2433 576.865 78.4054 577.892 79.3243 579.784C79.973 580.973 80.8378 582.108 81.3243 582.27C82.027 582.541 82.1351 582.054 82.1351 578.919C82.1351 569.514 87.7027 563.676 96.7297 563.622C110.081 563.514 118.73 578.541 114.622 594.649C112.73 602.054 109.811 607.514 101.162 619.946C98.4054 623.946 95.2703 628.649 94.1892 630.432L92.1892 633.622L93.973 635.081C95.8649 636.649 101 639.622 101.324 639.297C101.432 639.243 104.784 634.27 108.73 628.324C121.486 609.297 125.919 597.73 125.919 583.676C125.919 577.622 125.216 574.162 122.892 569.351C117.919 558.865 103.27 551.405 92.6216 553.946Z" fill="black"/>
<path d="M269.865 554.27C259.703 557.081 251.486 565.405 248.892 575.459C247.108 582.216 248.351 594.757 251.649 603.514C254.027 609.892 259.054 618.973 265.919 629.405L272.514 639.351L274.351 638.595C276.676 637.622 280.892 634.649 281.27 633.73C281.378 633.351 279.216 629.622 276.405 625.514C270.892 617.514 265.324 608.541 262.946 603.73C256.243 590.378 257 577.73 265.054 569.189C268.189 565.946 270.351 564.649 274.405 563.784C277.541 563.135 281.541 563.676 284.351 565.081C289.27 567.622 292.676 573.838 292.297 579.514C292.081 582.108 292.189 582.487 292.838 582C296.297 579.135 296.622 571.135 293.541 564.487C291.432 559.946 288.405 556.703 284.568 555.027C281.108 553.459 273.973 553.135 269.865 554.27Z" fill="black"/>
<path d="M101.541 571.892C89.2703 580.378 79.7027 590.757 75.1081 600.595C69.5946 612.487 70.2973 628.811 76.7297 638.865C86.5676 654 107.649 660.324 139.162 657.514C151.378 656.433 156.73 656.649 161.324 658.378C169.432 661.405 172.946 669.946 172.946 686.811C172.946 704.27 169.541 718.703 163.432 726.973C159.324 732.595 154.027 734.919 149.216 733.243L146.784 732.433L140.676 735.46C137.324 737.135 134.568 738.703 134.568 738.865C134.568 739.784 138.135 743.622 140.459 745.243C147.595 750.216 160.892 748.108 169.108 740.703C176.459 734.108 181.595 723.189 183.973 709.243C186.622 693.838 186.514 665.081 183.757 654.324C181.378 645.027 175.919 639.243 163.324 632.649C156.838 629.297 153 623.622 154.73 619.946C155.703 617.946 158.243 617.838 160.459 619.73C161.432 620.487 162.297 621.027 162.459 620.919C162.73 620.649 151.703 604.487 147.703 599.243C146.351 597.514 145.162 596.216 145 596.324C144.892 596.487 145 597.514 145.324 598.649C146.568 603.297 147.054 608.757 146.459 611.676C145.919 614.216 144.243 617.243 143.324 617.243C143.108 617.243 143 615.568 143.108 613.514C143.27 609.838 143.27 609.784 141.811 609.46C137.865 608.432 135.378 604.703 134.784 598.973C134.568 597.135 134.297 595.622 134.189 595.622C134.081 595.622 132.892 596.324 131.595 597.243C128.189 599.568 124.946 603.514 123.054 607.46C121.108 611.568 120.514 617.568 121.595 622.216C122.405 625.73 125.811 632.433 128.243 635.297L130.027 637.405L131.324 635.405C133.973 631.081 140.676 628.108 144.081 629.73C147.973 631.622 147.703 636.216 143.432 640.324C139.703 643.946 135.27 645.081 125.378 645.027C109.27 644.973 97.4324 641.351 91.0541 634.487C85.973 628.973 84.2973 621.514 86.1351 612.324C88.027 602.919 92.9459 595.189 104.946 582.811C108.459 579.243 111.324 576.054 111.324 575.73C111.324 574.865 106.892 569.135 106.189 569.135C105.865 569.135 103.757 570.378 101.541 571.892Z" fill="black"/>
<path d="M265.973 571.027C265.054 572.054 263.973 573.622 263.486 574.487L262.676 576.054L269.432 583.135C279.811 594 283.919 600 286.784 608.324C288.081 612.054 288.297 613.46 288.297 618.865C288.297 625.946 287.486 628.757 284.081 633.405C280.027 638.919 271.649 642.757 259.865 644.487C241.27 647.243 228.513 643.297 227.649 634.541C227.378 631.297 228.297 629.892 231.108 629.351C234.676 628.703 236.568 629.514 240.73 633.514L244.676 637.243L246.622 634.378C251.541 626.973 253.216 621.676 252.838 615.135C252.459 608.27 249.27 602.595 243.054 597.676C241.595 596.541 240.189 595.622 239.919 595.622C239.649 595.622 239.432 596.541 239.432 597.622C239.432 600.757 238.027 605.351 236.622 606.811C235.973 607.514 234.351 608.595 233 609.189L230.622 610.216L230.892 614C231.162 617.784 231.162 617.838 230.081 616.865C227.432 614.487 226.784 608.27 228.351 600.162C228.784 597.838 229.108 595.892 229 595.838C228.838 595.622 217.216 611.946 214.189 616.649C211.432 620.919 211.27 621.622 213.541 619.73C215.703 617.892 218.027 617.892 219.216 619.676C220.027 620.865 220.027 621.405 219.432 623.351C218.405 626.865 216.622 628.811 210.622 632.703C200.297 639.46 199.486 640.054 196.73 642.757C192.946 646.595 190.513 651.838 189.324 658.595C188.027 666.324 188.027 694.054 189.324 703.73C191.703 721.189 196.568 732.973 204.243 740.108C214.784 749.838 230.405 750.703 237.324 742C238.459 740.541 239.432 739.135 239.432 738.865C239.432 738.649 238.135 737.946 236.568 737.297C235 736.649 232.243 735.243 230.513 734.216L227.27 732.27L224.676 733.189C216.838 736 209.162 728.865 204.838 714.811C202.73 707.838 201.486 699.081 201.216 688.865C200.676 670 204.027 661.568 213.324 658.541C216.676 657.46 219.162 657.405 245.378 657.838C262.513 658.108 272.189 656.432 282.405 651.351C292.892 646.108 298.676 639.351 301.432 629.135C302.73 624.216 302.73 611.838 301.432 606.973C299.27 598.973 294.784 591.568 288.027 584.865C283.757 580.649 269.27 569.135 268.189 569.135C267.865 569.135 266.892 570 265.973 571.027Z" fill="black"/>
<path d="M81.6486 651.784C78.7297 658.649 78.0811 662.324 78.0811 672.649C78.0811 681.892 78.1892 682.595 79.5946 686.703C82.5675 695.135 87.4865 701.784 93.9729 706.108C101.919 711.405 108.405 713.081 120.189 712.865L128.351 712.703L128.73 716.378C128.892 718.378 129.216 720.378 129.378 720.811C129.811 721.946 132.676 721.73 136.73 720.324L140.243 719.081L140.027 716.378C139.486 710.162 139.162 710.703 144.297 708.865C153.757 705.405 157.649 702.649 166.081 693.351L171.324 687.568V684.324C171.324 679.622 170.351 673.189 169 669.135C167.595 665.027 167.432 665.027 161.811 667.514L158.351 669.081V672.757C158.351 680 155.811 685.676 150.405 690.757C147.324 693.676 141.811 696.865 139.162 697.351C138.243 697.514 137.973 696.919 137 691.676C136.405 688.487 135.703 685.838 135.378 685.892C135.108 685.946 133.432 687.297 131.649 688.973C127.919 692.541 126.189 695.946 126.73 698.703L127.054 700.649L122.405 700.27C112.297 699.459 104.676 696.378 98.7838 690.811C94.4054 686.703 92.1892 682.595 90.9459 676.216C89.9189 670.973 90.4054 665.946 92.6216 658.703L93.9189 654.487L92.6756 654C92.027 653.73 89.4865 652.541 87.1081 651.351L82.7838 649.189L81.6486 651.784Z" fill="black"/>
<path d="M286.622 651.189C284.784 652.27 282.568 653.568 281.703 654.054L280.135 654.973L281.432 658.811C284.568 668.162 284.351 676.324 280.73 683.676C276.189 692.865 266.784 698.595 253.973 699.946C247.27 700.595 247 700.487 247 696.757V693.676L243.054 689.784C240.892 687.676 239 685.892 238.784 685.892C238.243 685.892 237.378 688.973 236.676 693.568C236.297 696.216 235.811 697.784 235.378 697.784C233.703 697.784 226.622 693.622 223.703 690.919C218.297 685.892 215.649 679.946 215.649 672.811V669.081L212.297 667.514C206.622 664.973 206.405 665.027 205 669.189C203.703 673.027 202.676 680 202.676 684.919C202.676 687.514 202.892 688.108 204.027 689.027C204.73 689.622 207.162 692.27 209.378 694.919C215.27 702.054 219.162 704.757 229.054 708.595L234.297 710.649L234.135 714.649L233.919 718.703L236.73 719.892C238.243 720.541 240.676 721.243 242.081 721.405L244.676 721.676L245.054 718.541C245.27 716.757 245.541 714.757 245.703 714L245.919 712.649H255.27C265.973 712.595 268.838 712.054 276.189 708.432C279.757 706.703 281.757 705.243 285.162 701.838C289.865 697.135 292.459 692.811 294.568 686.162C296.081 681.351 296.676 669.946 295.649 663.514C294.838 658.162 291.865 649.459 290.73 649.297C290.351 649.243 288.459 650.108 286.622 651.189Z" fill="black"/>
<path d="M144.027 658.703C142.946 658.865 142.135 659.405 141.541 660.378C141.108 661.189 138.297 663.568 135.324 665.622C127.595 671.081 116.892 681.946 111.919 689.351C109 693.73 108.189 695.351 108.73 695.676C109.649 696.162 117 698.162 119.432 698.541C121.216 698.811 121.432 698.703 123.487 695.73C126.784 691.027 138.568 679.568 144.297 675.459C149.162 672 163.595 664.27 165.162 664.27C166.946 664.27 164.892 661.838 161.811 660.324C158.622 658.703 150.081 657.946 144.027 658.703Z" fill="black"/>
<path d="M216.189 659.027C214.568 659.405 212.459 660.108 211.595 660.595C209.919 661.459 207.757 663.568 208.135 663.946C208.243 664.054 210.568 665.081 213.216 666.216C219.324 668.811 223.487 671.135 229.811 675.622C235.432 679.568 246.243 689.946 249.649 694.703C250.892 696.432 252.514 698.054 253.27 698.324C254.946 698.973 258.676 698.162 262.838 696.27L265.973 694.811L262.459 689.676C256.784 681.351 252.568 676.919 243.486 669.676C241.108 667.784 237.27 664.541 234.892 662.432L230.676 658.649L224.892 658.486C221.541 658.432 217.919 658.649 216.189 659.027Z" fill="black"/>
<path d="M110.784 663.135C108.405 663.676 104.838 665.46 103.703 666.757C100.892 669.946 99.973 676.162 101.811 678.973C103.27 681.243 104.081 681.189 104.135 678.811C104.297 675.946 105.324 674 107.486 672.541C110.784 670.27 116.297 671.189 119.324 674.432L120.784 676L124.459 672.703L128.135 669.351L127 667.892C124.351 664.541 115.865 662.054 110.784 663.135Z" fill="black"/>
<path d="M255.757 663.189C253.162 663.73 248.568 666.108 247.216 667.568C246.081 668.811 246.73 670 250.514 673.189L253.486 675.784L254.568 674.378C256.135 672.432 259.919 671.081 263 671.46C267.162 671.892 270.081 674.973 270.351 679.081C270.513 681.081 270.513 681.081 271.432 679.892C275.216 675.297 272.892 667.514 266.892 664.595C263.649 663.027 259.216 662.487 255.757 663.189Z" fill="black"/>
<path d="M156.568 712.649C153.703 713.405 152.027 714.216 143.216 718.973C134.73 723.568 129.649 724.595 123.865 722.919C120.838 722 117.595 718.811 117 716.162C116.676 714.757 116.514 714.703 112.243 714.378C109.811 714.162 107 713.784 105.973 713.46C104.946 713.189 103.973 713.081 103.811 713.189C103.162 713.892 104.838 721.784 106.297 724.919C108.514 729.46 111.108 732.378 114.946 734.378C122.243 738.27 131.649 738 140.027 733.73C141.054 733.189 144.514 731.081 147.703 729.027C154.189 724.865 157.757 723.135 161.919 722.162C164.622 721.514 164.784 721.351 166.081 718.433C167.973 714.054 168.243 712.541 167.216 712.162C165.757 711.622 159.27 711.892 156.568 712.649Z" fill="black"/>
<path d="M207.703 712.216C206.622 712.649 206.892 715.622 208.297 718.595C209.432 721.135 209.703 721.351 212.351 721.946C216.027 722.811 220.351 725.027 226.73 729.351C236.189 735.838 241.162 737.568 248.892 737.081C261 736.27 269 728.486 270.081 716.486L270.405 713.297L268.676 713.622C267.757 713.838 264.784 714.27 262.135 714.595C257.324 715.189 257.324 715.243 256.73 717.027C255.811 719.784 252.514 722.432 248.892 723.243C243.757 724.378 240.351 723.459 228.73 717.838C223.162 715.135 217.541 712.703 216.189 712.378C213.649 711.838 208.838 711.73 207.703 712.216Z" fill="black"/>
<path d="M189.108 723.297C188.027 725.676 187.811 726.919 187.811 731.513C187.811 736.27 187.973 737.351 189.216 739.946C191.865 745.676 195.649 748.649 201.216 749.405C203.973 749.838 204.622 749.189 202.405 748.162C200.135 747.135 196.135 743.081 194.838 740.486C193.108 737.027 192.73 734.486 193.486 731.297C194.081 728.811 194.027 728.324 192.676 724.811C191.865 722.757 191.054 720.919 190.838 720.757C190.622 720.649 189.811 721.784 189.108 723.297Z" fill="black"/>
<path d="M181.324 725.027C179.973 728.757 179.919 729.297 180.514 731.838C181.919 737.622 178.73 743.405 171.595 748.324L169.432 749.784L172.135 749.568C177.486 749.081 181.865 745.73 184.676 740.054C185.865 737.622 186.189 736.108 186.351 732.054C186.568 727.568 186.459 726.757 185.216 724.054C184.459 722.378 183.595 721.027 183.324 721.027C183 721.027 182.135 722.811 181.324 725.027Z" fill="black"/>
<defs>
<linearGradient id="paint0_linear" x1="188" y1="0" x2="188" y2="823" gradientUnits="userSpaceOnUse">
<stop stop-color="#2B9B8F"/>
<stop offset="1" stop-color="#0A2522"/>
</linearGradient>
</defs>
</svg>
