<svg width="375" height="812" viewBox="0 0 375 812" fill="none" xmlns="http://www.w3.org/2000/svg">
<rect width="375" height="812" fill="black"/>
<rect width="375" height="812" transform="matrix(1 0 0 -1 0 810)" fill="url(#paint0_linear)"/>
<path d="M177.167 517.094C166.985 521.227 154.888 526.822 153.275 528.133C150.25 530.552 147.982 534.333 145.916 540.381C144.857 543.557 142.538 550.11 140.724 554.949C135.834 568.155 135.986 570.322 142.438 577.631C147.781 583.68 164.566 605.606 174.193 618.964C179.082 625.768 183.518 631.767 184.022 632.321C185.131 633.43 185.03 633.43 186.845 630.708C187.45 629.851 187.5 629.851 188.256 630.809C190.726 633.984 190.121 634.388 195.666 626.172C202.37 616.242 210.283 605.757 222.532 590.585C235.94 573.951 236.797 572.843 237.401 570.675C238.51 566.592 237.905 563.618 234.075 554.193C232.613 550.563 230.798 545.472 230.093 542.851C228.228 536.399 226.816 533.325 224.498 530.754C221.826 527.78 219.759 526.621 211.997 523.445C208.317 521.933 203.428 519.816 201.16 518.707C195.363 515.884 192.137 515.229 189.516 516.288C187.752 516.993 187.298 516.993 186.089 516.338C184.022 515.28 181.048 515.532 177.167 517.094Z" fill="black"/>
<path d="M126.005 527.679C120.965 529.292 117.941 533.073 117.941 537.559V539.373L119.856 537.912C124.896 533.98 131.046 534.585 131.046 539.021C131.046 539.928 130.542 541.692 129.937 542.902C128.828 545.019 123.334 552.68 122.527 553.184C122.275 553.285 123.536 554.898 125.249 556.763L128.324 560.09L131.55 556.763C137.75 550.261 140.421 545.876 141.127 540.835C142.236 532.972 138.153 527.78 130.643 527.427C128.778 527.326 126.711 527.427 126.005 527.679Z" fill="black"/>
<path d="M240.728 527.931C235.839 529.746 233.722 533.022 233.772 538.516C233.823 544.767 236.04 548.95 243.148 556.36C247.079 560.493 247.13 560.493 247.886 559.384C248.289 558.729 249.65 557.217 250.86 555.957L253.027 553.638L249.499 549.404C243.853 542.549 242.543 538.516 245.265 536.349C247.634 534.484 252.321 535.089 254.741 537.609C256.807 539.726 257.564 539.777 257.564 537.811C257.564 534.333 254.942 530.502 251.263 528.637C248.642 527.276 243.4 526.923 240.728 527.931Z" fill="black"/>
<path d="M99.4922 548.85C96.9719 549.454 92.7883 551.975 90.9737 554.041C87.6973 557.62 86.538 560.695 86.286 566.088C86.0844 570.221 86.2356 571.179 87.0925 572.943C87.6973 574.052 88.5038 575.111 88.9575 575.262C89.6127 575.514 89.7136 575.06 89.7136 572.137C89.7136 563.366 94.9053 557.923 103.323 557.872C115.773 557.771 123.838 571.784 120.007 586.805C118.243 593.71 115.521 598.801 107.456 610.395C104.886 614.125 101.962 618.51 100.954 620.173L99.089 623.147L100.752 624.508C102.517 625.97 107.305 628.742 107.607 628.44C107.708 628.389 110.833 623.752 114.513 618.207C126.409 600.465 130.542 589.678 130.542 576.573C130.542 570.927 129.887 567.701 127.719 563.215C123.082 553.436 109.422 546.481 99.4922 548.85Z" fill="black"/>
<path d="M264.771 549.152C255.295 551.773 247.634 559.536 245.214 568.911C243.551 575.212 244.71 586.906 247.785 595.071C250.003 601.019 254.69 609.487 261.092 619.216L267.241 628.49L268.955 627.784C271.123 626.877 275.054 624.105 275.407 623.248C275.508 622.895 273.492 619.417 270.871 615.586C265.729 608.126 260.537 599.759 258.32 595.273C252.069 582.823 252.775 571.028 260.285 563.064C263.209 560.04 265.225 558.83 269.006 558.023C271.929 557.418 275.659 557.923 278.28 559.233C282.867 561.602 286.043 567.399 285.69 572.691C285.488 575.111 285.589 575.464 286.194 575.01C289.42 572.338 289.722 564.878 286.849 558.679C284.883 554.445 282.061 551.42 278.482 549.858C275.256 548.396 268.602 548.093 264.771 549.152Z" fill="black"/>
<path d="M107.809 565.584C96.367 573.498 87.4453 583.176 83.1608 592.349C78.0195 603.439 78.6747 618.661 84.673 628.036C93.8468 642.15 113.505 648.047 142.891 645.426C154.283 644.418 159.273 644.62 163.557 646.233C171.118 649.056 174.395 657.02 174.395 672.746C174.395 689.027 171.219 702.485 165.523 710.197C161.692 715.439 156.753 717.607 152.267 716.044L149.998 715.288L144.303 718.111C141.177 719.674 138.607 721.135 138.607 721.286C138.607 722.143 141.934 725.722 144.101 727.234C150.754 731.872 163.154 729.906 170.816 723C177.671 716.851 182.459 706.669 184.677 693.664C187.147 679.299 187.046 652.483 184.476 642.452C182.258 633.783 177.167 628.389 165.422 622.24C159.374 619.115 155.795 613.822 157.408 610.395C158.315 608.53 160.684 608.429 162.751 610.193C163.658 610.899 164.465 611.403 164.616 611.302C164.868 611.05 154.585 595.979 150.855 591.089C149.595 589.476 148.486 588.267 148.335 588.367C148.234 588.519 148.335 589.476 148.637 590.535C149.797 594.87 150.25 599.961 149.696 602.683C149.192 605.052 147.629 607.874 146.772 607.874C146.571 607.874 146.47 606.312 146.571 604.396C146.722 600.969 146.722 600.918 145.361 600.616C141.681 599.658 139.363 596.18 138.808 590.837C138.607 589.124 138.355 587.712 138.254 587.712C138.153 587.712 137.044 588.367 135.834 589.224C132.659 591.392 129.635 595.071 127.87 598.751C126.056 602.582 125.501 608.177 126.509 612.512C127.266 615.788 130.441 622.038 132.709 624.71L134.373 626.676L135.582 624.811C138.052 620.778 144.303 618.006 147.478 619.518C151.107 621.282 150.855 625.567 146.873 629.397C143.395 632.775 139.262 633.833 130.038 633.783C115.017 633.732 103.978 630.355 98.0304 623.954C93.2923 618.812 91.7297 611.856 93.4435 603.287C95.2077 594.517 99.7946 587.309 110.985 575.766C114.261 572.439 116.932 569.465 116.932 569.163C116.932 568.356 112.799 563.014 112.144 563.014C111.841 563.014 109.876 564.173 107.809 565.584Z" fill="black"/>
<path d="M261.142 564.778C260.285 565.735 259.277 567.197 258.824 568.004L258.068 569.465L264.368 576.069C274.046 586.2 277.877 591.795 280.548 599.557C281.758 603.035 281.96 604.346 281.96 609.386C281.96 615.99 281.204 618.611 278.028 622.946C274.248 628.087 266.435 631.666 255.446 633.279C238.107 635.849 226.211 632.17 225.405 624.004C225.153 620.98 226.01 619.669 228.631 619.165C231.958 618.56 233.722 619.316 237.603 623.046L241.283 626.524L243.097 623.853C247.684 616.947 249.247 612.008 248.894 605.909C248.541 599.507 245.567 594.214 239.77 589.628C238.409 588.569 237.099 587.712 236.847 587.712C236.595 587.712 236.393 588.569 236.393 589.577C236.393 592.501 235.083 596.785 233.772 598.146C233.167 598.801 231.655 599.809 230.395 600.364L228.177 601.322L228.429 604.85C228.681 608.378 228.681 608.429 227.673 607.521C225.203 605.304 224.598 599.507 226.06 591.946C226.463 589.779 226.766 587.964 226.665 587.914C226.514 587.712 215.677 602.935 212.854 607.32C210.283 611.302 210.132 611.957 212.249 610.193C214.265 608.479 216.433 608.479 217.542 610.143C218.298 611.251 218.298 611.756 217.743 613.57C216.786 616.846 215.122 618.661 209.527 622.29C199.9 628.591 199.144 629.145 196.573 631.666C193.045 635.244 190.776 640.134 189.667 646.434C188.458 653.642 188.458 679.5 189.667 688.523C191.885 704.804 196.422 715.792 203.579 722.446C213.408 731.519 227.976 732.325 234.427 724.21C235.486 722.849 236.393 721.539 236.393 721.286C236.393 721.085 235.184 720.43 233.722 719.825C232.26 719.22 229.689 717.909 228.076 716.952L225.052 715.137L222.633 715.994C215.324 718.615 208.166 711.961 204.134 698.856C202.168 692.354 201.009 684.188 200.757 674.661C200.253 657.07 203.378 649.207 212.047 646.384C215.173 645.376 217.491 645.326 241.938 645.729C257.916 645.981 266.939 644.418 276.466 639.68C286.244 634.791 291.638 628.49 294.208 618.964C295.418 614.377 295.418 602.834 294.208 598.297C292.192 590.837 288.008 583.932 281.708 577.681C277.726 573.75 264.217 563.014 263.209 563.014C262.906 563.014 261.999 563.82 261.142 564.778Z" fill="black"/>
<path d="M89.2599 640.083C86.538 646.485 85.9331 649.912 85.9331 659.54C85.9331 668.159 86.0339 668.814 87.3445 672.645C90.1168 680.509 94.7036 686.708 100.752 690.741C108.162 695.681 114.211 697.243 125.199 697.041L132.81 696.89L133.163 700.318C133.314 702.183 133.617 704.048 133.768 704.451C134.171 705.51 136.843 705.308 140.623 703.997L143.899 702.838L143.698 700.318C143.194 694.521 142.891 695.025 147.68 693.311C156.501 690.086 160.13 687.515 167.993 678.845L172.882 673.452V670.427C172.882 666.042 171.975 660.044 170.715 656.264C169.404 652.433 169.253 652.433 164.011 654.751L160.785 656.213V659.641C160.785 666.395 158.416 671.688 153.376 676.426C150.502 679.148 145.361 682.121 142.891 682.575C142.034 682.726 141.782 682.172 140.875 677.283C140.321 674.309 139.665 671.839 139.363 671.889C139.111 671.94 137.548 673.2 135.885 674.762C132.407 678.089 130.794 681.265 131.298 683.835L131.6 685.65L127.266 685.297C117.84 684.541 110.733 681.668 105.238 676.476C101.156 672.645 99.0889 668.814 97.9296 662.867C96.9719 657.977 97.4255 653.29 99.4922 646.535L100.702 642.604L99.5426 642.15C98.9377 641.898 96.5686 640.789 94.3508 639.68L90.3184 637.664L89.2599 640.083Z" fill="black"/>
<path d="M280.397 639.529C278.683 640.537 276.617 641.747 275.81 642.2L274.349 643.057L275.558 646.636C278.482 655.356 278.28 662.967 274.903 669.823C270.669 678.391 261.898 683.734 249.952 684.995C243.702 685.599 243.45 685.499 243.45 682.021V679.148L239.77 675.518C237.754 673.553 235.99 671.889 235.788 671.889C235.284 671.889 234.478 674.762 233.823 679.047C233.47 681.517 233.016 682.978 232.613 682.978C231.05 682.978 224.447 679.097 221.725 676.577C216.685 671.889 214.215 666.345 214.215 659.691V656.213L211.09 654.751C205.797 652.382 205.596 652.433 204.285 656.314C203.075 659.893 202.118 666.395 202.118 670.982C202.118 673.401 202.319 673.956 203.378 674.813C204.033 675.367 206.301 677.837 208.368 680.307C213.862 686.96 217.491 689.481 226.715 693.059L231.605 694.975L231.454 698.705L231.252 702.485L233.873 703.594C235.284 704.199 237.553 704.854 238.863 705.006L241.283 705.258L241.635 702.334C241.837 700.671 242.089 698.806 242.24 698.1L242.442 696.84H251.162C261.142 696.789 263.814 696.285 270.669 692.908C273.996 691.295 275.861 689.934 279.036 686.759C283.422 682.374 285.841 678.341 287.807 672.141C289.218 667.655 289.773 657.02 288.815 651.021C288.059 646.031 285.287 637.916 284.228 637.765C283.875 637.714 282.111 638.521 280.397 639.529Z" fill="black"/>
<path d="M147.428 646.535C146.42 646.686 145.664 647.19 145.109 648.098C144.706 648.854 142.085 651.072 139.312 652.987C132.104 658.078 122.124 668.21 117.487 675.115C114.765 679.198 114.009 680.71 114.513 681.013C115.37 681.466 122.225 683.331 124.493 683.684C126.157 683.936 126.358 683.835 128.274 681.063C131.348 676.678 142.337 665.992 147.68 662.161C152.216 658.935 165.674 651.727 167.136 651.727C168.8 651.727 166.884 649.459 164.011 648.047C161.037 646.535 153.073 645.83 147.428 646.535Z" fill="black"/>
<path d="M214.719 646.838C213.207 647.191 211.241 647.846 210.434 648.299C208.872 649.106 206.856 651.072 207.209 651.425C207.309 651.525 209.477 652.483 211.947 653.542C217.642 655.961 221.524 658.128 227.421 662.312C232.663 665.992 242.744 675.67 245.92 680.105C247.079 681.718 248.591 683.23 249.297 683.482C250.86 684.087 254.338 683.331 258.219 681.567L261.142 680.206L257.866 675.418C252.573 667.655 248.642 663.522 240.174 656.768C237.956 655.003 234.377 651.979 232.159 650.013L228.228 646.485L222.834 646.334C219.709 646.283 216.332 646.485 214.719 646.838Z" fill="black"/>
<path d="M116.428 650.669C114.211 651.173 110.884 652.836 109.825 654.046C107.204 657.02 106.347 662.816 108.061 665.437C109.422 667.554 110.178 667.504 110.229 665.286C110.38 662.615 111.337 660.8 113.354 659.439C116.428 657.322 121.57 658.179 124.392 661.203L125.753 662.665L129.181 659.59L132.609 656.465L131.55 655.104C129.08 651.979 121.167 649.66 116.428 650.669Z" fill="black"/>
<path d="M251.616 650.719C249.196 651.223 244.912 653.441 243.652 654.802C242.593 655.961 243.198 657.07 246.726 660.044L249.499 662.463L250.507 661.153C251.968 659.338 255.497 658.078 258.37 658.431C262.251 658.834 264.973 661.707 265.225 665.538C265.376 667.403 265.376 667.403 266.233 666.294C269.762 662.01 267.594 654.751 261.999 652.03C258.975 650.568 254.842 650.064 251.616 650.719Z" fill="black"/>
<path d="M159.122 696.84C156.45 697.546 154.888 698.302 146.672 702.737C138.758 707.022 134.02 707.98 128.626 706.417C125.804 705.56 122.779 702.586 122.225 700.116C121.923 698.806 121.771 698.755 117.789 698.453C115.521 698.251 112.9 697.898 111.942 697.596C110.985 697.344 110.077 697.243 109.926 697.344C109.321 697.999 110.884 705.358 112.245 708.282C114.311 712.516 116.731 715.238 120.31 717.103C127.114 720.732 135.885 720.48 143.698 716.498C144.655 715.994 147.881 714.028 150.855 712.113C156.904 708.232 160.231 706.619 164.112 705.711C166.632 705.106 166.783 704.955 167.993 702.233C169.757 698.15 170.009 696.739 169.052 696.386C167.691 695.882 161.642 696.134 159.122 696.84Z" fill="black"/>
<path d="M206.805 696.437C205.797 696.84 206.049 699.612 207.36 702.384C208.418 704.754 208.67 704.955 211.14 705.51C214.568 706.316 218.6 708.383 224.548 712.415C233.369 718.464 238.006 720.077 245.214 719.623C256.505 718.867 263.965 711.609 264.973 700.419L265.276 697.445L263.663 697.747C262.806 697.949 260.033 698.352 257.564 698.654C253.077 699.209 253.077 699.259 252.523 700.923C251.666 703.493 248.591 705.963 245.214 706.719C240.426 707.778 237.25 706.921 226.413 701.679C221.221 699.159 215.979 696.89 214.719 696.588C212.35 696.084 207.864 695.983 206.805 696.437Z" fill="black"/>
<path d="M189.466 706.77C188.458 708.988 188.256 710.147 188.256 714.431C188.256 718.867 188.407 719.875 189.567 722.295C192.036 727.638 195.565 730.41 200.757 731.116C203.327 731.519 203.932 730.914 201.866 729.956C199.749 728.998 196.019 725.218 194.809 722.799C193.196 719.573 192.843 717.204 193.549 714.23C194.103 711.911 194.053 711.457 192.793 708.181C192.036 706.266 191.28 704.552 191.079 704.401C190.877 704.3 190.121 705.358 189.466 706.77Z" fill="black"/>
<path d="M182.207 708.383C180.947 711.861 180.897 712.365 181.451 714.734C182.762 720.127 179.788 725.521 173.134 730.107L171.118 731.468L173.638 731.267C178.629 730.813 182.711 727.688 185.333 722.395C186.441 720.127 186.744 718.716 186.895 714.935C187.097 710.752 186.996 709.996 185.837 707.475C185.131 705.913 184.324 704.653 184.072 704.653C183.77 704.653 182.964 706.316 182.207 708.383Z" fill="black"/>
<defs>
<linearGradient id="paint0_linear" x1="187.5" y1="0" x2="187.5" y2="812" gradientUnits="userSpaceOnUse">
<stop stop-color="#2B9B8F"/>
<stop offset="1" stop-color="#0A2522"/>
</linearGradient>
</defs>
</svg>
